<?xml version="1.0" encoding="utf-8"?>
<!-- Svg Vector Icons : http://www.onlinewebfonts.com/icon -->
<!DOCTYPE svg PUBLIC "-//W3C//DTD SVG 1.1//EN" "http://www.w3.org/Graphics/SVG/1.1/DTD/svg11.dtd">
<svg version="1.1" xmlns="http://www.w3.org/2000/svg" xmlns:xlink="http://www.w3.org/1999/xlink" x="0px" y="0px" viewBox="0 0 1000 1000" enable-background="new 0 0 1000 1000" xml:space="preserve">
<metadata> Svg Vector Icons : http://www.onlinewebfonts.com/icon </metadata>
<g><g transform="translate(0.000000,368.000000) scale(0.100000,-0.100000)"><path d="M3468.7,2049.7v-153.1h153.1H3775v153.1v153.1h-153.1h-153.1V2049.7z"/><path d="M4081.2,2049.7v-153.1h612.5h612.5v153.1v153.1h-612.5h-612.5V2049.7z"/><path d="M6866.2,2174.1c-354.1-65.1-717.8-245-1094.8-537.9l-158.9-124.4v-377.1V757.7L6728.4-358.2l1114-1114h377.1h377.1l122.5,158.9c233.5,298.6,361.8,520.6,463.2,803.9c53.6,153.1,70.8,176.1,155,241.2c101.5,74.6,206.7,231.6,239.3,356c28.7,103.4,11.5,250.7-42.1,365.6c-53.6,111-189.5,254.6-289,300.5c-61.3,28.7-86.1,61.3-158.9,206.7c-222,447.9-514.9,756.1-924.5,970.4C7727.5,2158.8,7256.7,2246.9,6866.2,2174.1z M7593.6,1839.2c191.4-51.7,472.8-183.8,629.7-294.8c210.5-151.2,442.1-417.3,555.1-637.4l49.8-101.4l-90-42.1c-189.5-88-342.6-300.5-363.7-505.3C8347.7,1.7,8541-275.9,8809-367.7c65.1-23,84.2-38.3,80.4-65.1c-7.7-47.9-168.4-369.4-214.4-426.8l-36.4-47.9l-1226.9,1225c-673.8,673.8-1225,1230.7-1225,1238.4c0,24.9,264.1,170.4,415.4,229.7c82.3,32.5,201,68.9,264.1,84.2C7028.9,1908.1,7396.4,1892.7,7593.6,1839.2z M8211.8-1162.1l-233.5-5.7L6948.5-138.1L5918.7,891.7V1131v239.3L7182,106.9l1263.3-1263.3L8211.8-1162.1z M9168.8,468.7c84.2-63.2,122.5-155,112.9-281.4c-11.5-191.4-126.3-289-325.4-275.6C8765-76.8,8667.3,38,8680.7,237.1c7.7,126.3,49.8,197.2,149.3,248.8C8916.2,531.9,9094.2,522.3,9168.8,468.7z"/><path d="M8062.5,977.8V824.7h153.1h153.1v153.1V1131h-153.1h-153.1V977.8z"/><path d="M1018.7,1131V977.8h153.1H1325V1131v153.1h-153.1h-153.1V1131z"/><path d="M1631.2,1131V977.8h842.2h842.2V1131v153.1h-842.2h-842.2V1131z"/><path d="M5028.7,1270.7c-42.1-3.8-170.4-24.9-283.3-45.9C3524.3,997,2538.5,13.1,2303.1-1211.9c-23-112.9-40.2-231.6-40.2-266.1c0-141.6-7.7-147.4-174.2-147.4h-151.2v-153.1v-153.1h151.2c166.5,0,174.2-5.7,174.2-147.4c0-105.3,76.6-461.3,137.8-645c74.6-227.8,216.3-516.8,348.4-717.8c59.3-90,107.2-164.6,107.2-168.4s-275.6-5.7-612.5-5.7h-612.5V-3769v-153.1h752.2c742.7,0,754.2,0,790.5-40.2c86.1-93.8,403.9-335,593.4-449.8l204.8-122.5h-1937H100v-153.1v-155l2790.7,7.7c2779.2,5.7,2788.8,5.7,2980.2,47.9c1395.4,302.4,2388.7,1427.9,2490.2,2823.2l13.4,185.7h-153.1h-153.1l-13.4-195.2c-11.5-183.8-65.1-486.2-101.4-585.7c-15.3-40.2-28.7-42.1-216.3-49.8c-405.8-15.3-800.1-208.6-1129.3-558.9c-300.5-319.7-459.4-669.9-470.8-1041.3c-5.8-231.6,17.2-206.7-275.6-273.7c-264.1-59.3-846-57.4-1114,1.9c-384.7,84.2-689.1,212.5-999.1,421.1l-193.3,128.2l187.6,5.7l185.7,5.7v151.2v153.1h-344.5h-346.4l-47.9,53.6c-91.9,101.4-294.8,419.2-369.4,580c-134,287.1-227.8,618.3-260.3,932.1l-11.5,118.7h461.3h459.4v153.1v153.1h-459.4c-354.1,0-459.4,5.7-459.4,24.9c1.9,80.4,44,335,78.5,482.3l40.2,172.3H2862c149.3,0,229.7,11.5,338.8,45.9c568.5,176.1,1050.8,658.4,1226.9,1226.9c34.5,109.1,45.9,189.5,45.9,338.8v193.3l172.3,40.2c199.1,47.9,415.4,76.6,560.8,78.5h99.5V1131v153.1l-99.5-3.8C5151.2,1278.3,5070.8,1274.5,5028.7,1270.7z M4180.8,543.3C4100.4,28.5,3520.4-559.2,3001.7-651c-68.9-11.5-147.4-15.3-174.2-9.6l-47.9,11.5l65.1,130.2c122.5,243.1,300.5,486.2,509.1,692.9C3568.3,388.3,3752,524.2,4008.5,662C4199.9,765.4,4213.3,755.8,4180.8,543.3z M7802.2-2900c24.9-9.6,19.1-32.5-36.4-139.7c-246.9-493.8-704.4-951.3-1200.1-1200.1c-158.9-80.4-166.5-72.7-134,143.6c59.3,396.2,440.2,867.1,874.7,1083.3C7507.4-2913.5,7714.1-2865.6,7802.2-2900z"/><path d="M1325,212.2V59.1h306.3h306.2v153.1v153.1h-306.2H1325V212.2z"/><path d="M2243.7,212.2V59.1h153.1H2550v153.1v153.1h-153.1h-153.1V212.2z"/><path d="M5000-283.5c-396.2-86.1-746.5-331.1-972.3-675.7c-331.1-507.2-333.1-1127.4-3.8-1630.8c264.1-403.9,687.1-664.2,1161.8-712l120.6-13.4v157v155h-70.8c-135.9,0-340.7,57.4-501.5,135.9c-721.6,356-878.5,1382-298.6,1960c578,580,1604,423,1960-298.6c78.5-160.8,135.9-365.6,135.9-499.6v-72.7h155h157l-13.4,120.6c-47.9,474.7-308.2,897.7-712,1161.8C5788.6-279.7,5371.3-201.2,5000-283.5z"/><path d="M712.5-859.7v-153.1H1325h612.5v153.1v153.1H1325H712.5V-859.7z"/><path d="M5306.2-1010.9v-149.3l93.8-11.5c197.1-23,373.2-149.3,461.3-329.2c40.2-82.3,47.9-122.5,45.9-277.5c0-208.6-40.2-319.6-160.8-440.2s-231.6-160.8-440.2-160.8c-155-1.9-195.2,5.8-277.5,45.9c-179.9,88-306.3,264.1-329.2,461.3l-11.5,93.8h-149.3c-174.2,0-174.2,0-122.5-201c118.7-453.6,585.7-777.1,1014.5-704.4c388.6,67,713.9,390.5,780.9,777.1c72.7,432.6-248.8,899.6-704.4,1018.3C5306.2-836.7,5306.2-836.7,5306.2-1010.9z"/><path d="M5201-1499c-32.5-13.4-86.1-55.5-118.7-93.8c-112.9-130.1-101.4-283.3,32.5-403.9c132.1-120.6,285.2-109.1,409.6,26.8c114.8,128.2,111,279.5-13.4,398.1C5409.6-1474.1,5312-1451.1,5201-1499z"/><path d="M1325-1778.4v-153.1h153.1h153.1v153.1v153.1h-153.1H1325V-1778.4z"/><path d="M406.2-2697.2v-153.1h153.1h153.1v153.1v153.1H559.4H406.2V-2697.2z"/><path d="M1018.7-2697.2v-153.1h459.4h459.4v153.1v153.1h-459.4h-459.4V-2697.2z"/><path d="M4234.4-3769v-153.1h153.1h153.1v153.1v153.1h-153.1h-153.1V-3769z"/><path d="M6990.6-4687.8v-153.1h1454.7H9900v153.1v153.1H8445.3H6990.6V-4687.8z"/></g></g>
</svg>